<?xml version="1.0" encoding="UTF-8"?>
<svg id="Layer_1" xmlns="http://www.w3.org/2000/svg" version="1.1" viewBox="0 0 1137.6 335.8">
  <!-- Generator: Adobe Illustrator 29.3.1, SVG Export Plug-In . SVG Version: 2.1.0 Build 151)  -->
  <defs>
    <style>
      .st0 {
        fill: #fff;
      }

      .st1 {
        fill: #077df4;
      }
    </style>
  </defs>
  <path class="st0" d="M128.4,171.9l59.1-4.1s6.6.5,13.7-5.9c7.1-6.4,53.3-49.5,53.3-49.5l11.7,53.8,36.3-.2-34.7,8.6,7.8,34h47.1l-28.2-136.7h-55.3l-110.8,100.1Z"/>
  <polygon class="st0" points="311.3 71.8 318.9 102.7 371 102.7 339.7 208.5 386.2 208.5 418.3 103.3 468.5 103.3 485.6 71.8 311.3 71.8"/>
  <path class="st0" d="M452.8,208.5h48.7l34.2-105.2h73.5s11.2,1.8,9.9,13.2-7,18.5-17,20c-9.9,1.5-54.2,0-54.2,0l-15.9,12.1,54.6,59.8h56.4l-41.2-44.4,15.2-.9s35.2-2.6,42.9-26.6l6.6-17.6s5.3-28.6-7.7-38.1-32.6-8.8-32.6-8.8h-129.2s-44.4,136.5-44.4,136.5Z"/>
  <polygon class="st0" points="904.2 57.5 926 70.6 961.3 70.6 1073.6 152.5 921.7 246 965.9 246.8 1121.8 152.2 986.7 57.6 904.2 57.5"/>
  <path class="st1" d="M947.5,76.3l103.4,75.9-77.8,51.1s-56.1,37.3-72,38.6l91.5-92.3-45.1-73.3Z"/>
  <path class="st1" d="M84.6,187.1c.9-.2,12.7-6.2,12.7-6.2l163.7-12.2s-74,20-107.9,53.1l-1.5,1.7-118.2-1.2s108.2-10.3,106.3-10.2-123.9-1.8-123.9-1.8l144-9.6-118.2-3.4,133.1-9.4-90.1-.8Z"/>
  <path class="st1" d="M725.8,120h-41.4s3.3-24.7,15.2-33.9,18.7-10.8,41.4-13,56.6,1.1,56.6,1.1c0,0,32.6,0,26.4,30.8s-17.2,34.3-17.2,34.3l-98.6,41,100.2-1.3-8.1,29.5h-147.3l11.2-33.5s-2-5.6,20.5-16l85.2-33.6s15.4-5.3,12.8-17.4c0,0,0-3.7-10.6-4.8h-28.4s-15.4,2.4-17.8,16.7Z"/>
  <polygon class="st1" points="835.6 101.8 847.1 72.4 914.7 72.4 871.3 208.5 824.7 208.5 859.9 102.6 835.6 101.8"/>
  <polygon class="st1" points="158.2 254.9 368.9 254.9 364.9 265.5 158.2 254.9"/>
  <polygon class="st1" points="756 249.6 752 265.5 1009.6 257.5 756 249.6"/>
  <path class="st0" d="M411,231.6h13.7s-11.7,33.5-6.8,36.3h41.4l-2.4,10.3-45.8-1.1s-11-1.5-9.5-9.9,9.5-35.7,9.5-35.7Z"/>
  <path class="st0" d="M588.6,241.3c-.7-7.7-10.8-9.7-10.8-9.7h-42.5c-2.5.1-5.2,1-7.4,1.9-2.1.8-4.7,3.1-6.3,5.8-2.2,3.9-5.3,10.4-7.9,19.6-4.4,15.9,7.7,18.5,7.7,18.5,0,0,22,.7,38.8,0,16.8-.7,20.2-6.2,22.4-9s6.6-19.4,5.9-27.1ZM575.4,250.1c-1.1,8.1-3.1,16.3-11.7,18.3h-33.9s-4.8-2.4-2.4-9.9c2.4-7.5,2.9-14.5,11.9-17.2h30.8s6.4.7,5.3,8.8Z"/>
  <path class="st0" d="M710.3,240.5h-44.9s-8.6.2-10.9,8.1-4.3,13.4-4.3,13.4c0,0-1.5,5.7,4.1,6.4s27.4.9,27.4.9c0,0,8.6-.3,9.4-8.8v-1.8c.1,0-20.7.1-20.5,0s3.1-8.3,3.1-8.3h33.2c0,0-.9,18.9-9.7,24.6,0,0-3.6,2.5-14.5,2.6s-36.9-.4-36.9-.4c0,0-10-3-9.4-11.9s8.1-25.8,8.1-25.8c0,0,4.8-6.8,14.9-7.5s53.2.1,53.2.1l-2.4,8.6Z"/>
</svg>